<?xml version="1.0" encoding="utf-8"?>
<!-- Generator: Adobe Illustrator 27.5.0, SVG Export Plug-In . SVG Version: 6.00 Build 0)  -->
<svg version="1.1"
	xmlns="http://www.w3.org/2000/svg"
	xmlns:xlink="http://www.w3.org/1999/xlink" x="0px" y="0px" viewBox="50 20 100 130" style="enable-background:new 0 0 500 500;" xml:space="preserve">
	<!-- <g id="BACKGROUND">
		<rect style="fill:#252526;" width="500" height="500"/>
	</g> -->
	<g id="OBJECTS">
		<g>
			<g>
				<g>
					<g>

						<linearGradient id="SVGID_00000145779514991055939220000010236818869621074089_" gradientUnits="userSpaceOnUse" x1="91.1157" y1="146.2816" x2="91.1157" y2="27.9222">
							<stop offset="0" style="stop-color:#1A4E6F"/>
							<stop offset="1" style="stop-color:#0CEAC6"/>
						</linearGradient>
						<path style="fill:url(#SVGID_00000145779514991055939220000010236818869621074089_);" d="M127.032,35.076
									c-3.155-0.943-6.503-1.446-9.967-1.446c-19.284,0-34.927,15.635-34.927,34.919c0,1.987,0.031,4.423,0.124,7.191v56.585
									c0,7.477-6.054,13.532-13.531,13.532c-7.469,0-13.532-6.054-13.532-13.532V68.974c0-24.218,19.702-43.927,43.927-43.927
									C109.72,25.047,119.439,28.813,127.032,35.076z"/>
					</g>
				</g>
			</g>

			<linearGradient id="SVGID_00000025439699284218543170000008588115457112033205_" gradientUnits="userSpaceOnUse" x1="86.7958" y1="49.8223" x2="132.4819" y2="95.5084">
				<stop offset="0" style="stop-color:#1A4E6F"/>
				<stop offset="0.1287" style="stop-color:#176F81"/>
				<stop offset="0.3273" style="stop-color:#139A9A"/>
				<stop offset="0.5192" style="stop-color:#10BDAD"/>
				<stop offset="0.6999" style="stop-color:#0ED6BB"/>
				<stop offset="0.8649" style="stop-color:#0CE5C3"/>
				<stop offset="1" style="stop-color:#0CEAC6"/>
			</linearGradient>
			<path style="fill:url(#SVGID_00000025439699284218543170000008588115457112033205_);" d="M143.046,67.892v1.082
						c0,0.456-0.023,0.905-0.062,1.346c-1.268,23.096-20.452,41.499-43.858,41.499c-7.477,0-13.532-6.062-13.532-13.532
						c0-7.477,6.054-13.532,13.532-13.532c9.116,0,16.563-7.276,16.849-16.323c-0.286-9.047-7.732-16.323-16.849-16.323
						c-5.343,0-10.114,2.498-13.207,6.387c-0.008,0.008-0.008,0.015-0.008,0.015c-2.281,2.876-3.65,6.511-3.65,10.462v6.766
						c-0.093-2.768-0.124-5.204-0.124-7.191c0-19.284,15.642-34.919,34.927-34.919c3.464,0,6.812,0.502,9.967,1.446
						c9.194,7.578,15.256,18.82,15.952,31.463C143.023,66.987,143.046,67.436,143.046,67.892z"/>
			<g>

				<linearGradient id="SVGID_00000074407867472103178220000007847609574459445649_" gradientUnits="userSpaceOnUse" x1="82.5587" y1="54.6851" x2="128.0697" y2="54.6851">
					<stop offset="0" style="stop-color:#1A4E6F"/>
					<stop offset="1" style="stop-color:#0CEAC6"/>
				</linearGradient>
				<path style="fill:url(#SVGID_00000074407867472103178220000007847609574459445649_);" d="M127.032,35.076
							c-31.958-4.4-40.865,22.632-41.113,23.421c-0.008,0.008-0.008,0.015-0.008,0.015c-2.281,2.876-3.65,6.511-3.65,10.462v6.766
							c-0.093-2.768-0.124-5.204-0.124-7.191c0-19.284,15.642-34.919,34.927-34.919C120.529,33.63,123.878,34.132,127.032,35.076z" />
			</g>
		</g>
		<g>
			<path style="fill:#FFFFFF;" d="M86.409,57.906c-0.17,0.19-0.33,0.39-0.49,0.59c-0.01,0.01-0.01,0.02-0.01,0.02
						c-2.28,2.87-3.65,6.51-3.65,10.46v63.35c0,4.16-1.87,7.87-4.81,10.34c1.99-2.35,3.19-5.4,3.19-8.72v-63.35
						c0-3.95,1.37-7.58,3.65-10.46c0,0,0-0.01,0.01-0.01C84.929,59.326,85.639,58.586,86.409,57.906z"/>
			<path style="fill:#FFFFFF;" d="M99.129,84.756c4.22,0,8.09-1.57,11.06-4.16c-3.09,3.54-7.63,5.78-12.69,5.78
						c-3.31,0-6.34,1.19-8.69,3.15C91.299,86.606,94.989,84.756,99.129,84.756z"/>
			<path style="fill:#FFFFFF;" d="M143.049,67.896v1.08c0,0.45-0.03,0.9-0.06,1.34c-0.64,11.59-5.78,21.99-13.71,29.48
						c7-7.34,11.48-17.08,12.08-27.85c0.04-0.44,0.06-0.89,0.06-1.35v-1.08c0-0.46-0.02-0.9-0.06-1.35
						c-0.7-12.64-6.76-23.89-15.95-31.47c-7.59-6.26-17.31-10.02-27.91-10.02c-11.7,0-22.35,4.6-30.23,12.09
						c8-8.44,19.32-13.72,31.86-13.72c10.59,0,20.31,3.77,27.9,10.03c9.2,7.58,15.26,18.82,15.96,31.46
						C143.019,66.986,143.049,67.436,143.049,67.896z"/>
		</g>
	</g>
</svg>
